<?xml version="1.0" encoding="UTF-8"?>
<!DOCTYPE svg PUBLIC "-//W3C//DTD SVG 1.1//EN" "http://www.w3.org/Graphics/SVG/1.1/DTD/svg11.dtd">
<!-- Creator: CorelDRAW X7 -->
<svg xmlns="http://www.w3.org/2000/svg" xml:space="preserve" width="43.3492mm" height="43.3492mm" version="1.1" style="shape-rendering:geometricPrecision; text-rendering:geometricPrecision; image-rendering:optimizeQuality; fill-rule:evenodd; clip-rule:evenodd"
viewBox="0 0 4335 4335"
 xmlns:xlink="http://www.w3.org/1999/xlink">
 <defs>
  <style type="text/css">
   
  </style>
 </defs>
 <g id="Layer_x0020_1">
  <metadata id="CorelCorpID_0Corel-Layer"/>
  <g id="_2106786834384">
   <path  d="M2887 3133l117 -121c37,25 397,393 461,457 28,28 142,127 142,163 0,40 -57,102 -93,102 -47,0 -120,-90 -168,-138 -63,-63 -435,-428 -459,-463zm-1617 -982c0,-689 814,-994 1272,-536 338,338 261,893 -97,1135 -532,360 -1175,-39 -1175,-599zm-144 -60c0,179 9,270 87,438 135,289 462,494 811,494 119,0 237,-29 324,-66 142,-60 140,-77 243,-146l214 210c-57,82 -137,92 -22,207l449 449c18,17 70,57 70,82 0,31 -23,68 -51,68l-2472 0c-27,0 -51,-37 -51,-68l0 -3183c0,-54 24,-85 76,-85l1685 0 0 576c0,100 95,195 195,195l618 0 0 1845c-97,-65 -215,-254 -296,-254 -61,0 -60,55 -110,68l-210 -205c49,-76 94,-117 138,-222 122,-292 94,-632 -98,-885 -86,-115 -213,-227 -350,-285 -671,-279 -1250,253 -1250,767zm1499 -1507c27,18 45,42 69,66l359 336c31,24 120,111 139,140 -647,0 -567,66 -567,-262 0,-94 0,-187 0,-280zm-2032 -34l0 3226c0,58 36,114 70,142 41,35 93,53 167,53l2353 0c109,0 207,-35 229,-119 50,4 24,17 110,17 110,0 220,-117 220,-245 0,-104 -151,-224 -243,-316 -23,-22 -55,-40 -61,-74l-1 -1829c0,-332 -11,-235 -311,-535 -24,-25 -42,-44 -67,-68 -18,-17 -21,-17 -38,-30 -49,-40 -265,-264 -325,-310 -54,-42 -89,-106 -181,-106l-1728 0c-98,0 -194,96 -194,194z"/>
   <path  d="M1609 1795c0,54 31,70 65,104 51,51 217,209 239,243 -27,41 -117,122 -158,163 -48,48 -146,129 -146,176 0,41 26,67 67,67 67,0 248,-243 339,-304 40,27 119,114 159,154 29,29 135,150 171,150 41,0 76,-28 76,-67 0,-67 -243,-248 -304,-339 61,-91 304,-272 304,-339 0,-36 -31,-67 -67,-67 -67,0 -248,243 -339,304 -91,-61 -272,-304 -339,-304 -40,0 -67,39 -67,59z"/>
  </g>
 </g>
</svg>
